<?xml version="1.0" encoding="UTF-8" standalone="no"?>
<!-- Created with Inkscape (http://www.inkscape.org/) -->

<svg
   xmlns:svg="http://www.w3.org/2000/svg"
   xmlns="http://www.w3.org/2000/svg"
   width="16"
   height="16"
   viewBox="0 0 16 16"
   version="1.1">
  <g
     transform="translate(0,-1036.3622)">
    <g
       transform="matrix(0,-1,1,0,-340,1944.3622)"
       style="display:inline">
      <rect
         style="color:#000000;display:inline;overflow:visible;visibility:visible;fill:none;stroke:none;stroke-width:3.99920893;marker:none;enable-background:accumulate"
         width="16"
         height="16"
         x="892"
         y="340" />
      <path
         id="path7770"
         d="M 897.54492,341.45117 C 894.89167,342.44654 893,344.9991 893,348 c 0.003,2.68877 1.54515,5.1384 3.96875,6.30273 l -0.76758,1.19922 c 0.6622,0.0945 1.35201,0.16757 2.06836,0.21875 0.71183,0.0472 1.40955,0.0735 2.0957,0.0781 -0.29412,-0.61561 -0.60962,-1.23786 -0.94921,-1.86524 -0.34521,-0.63022 -0.69663,-1.22978 -1.05469,-1.79882 l -0.002,0 -0.84571,1.31835 C 895.37607,352.47983 894.00293,350.34875 894,348 c 0,-2.57192 1.62071,-4.75991 3.89453,-5.61328 z"
         style="opacity:1;fill:#000000;fill-opacity:1;stroke:none;stroke-width:2;stroke-linecap:round;stroke-linejoin:round;stroke-miterlimit:4;stroke-dasharray:none;stroke-dashoffset:0;stroke-opacity:1" />
      <path
         id="path7772"
         d="m 899.63477,340.20117 c 0.29412,0.61561 0.60962,1.23786 0.94921,1.86524 0.34521,0.63022 0.69663,1.22978 1.05469,1.79882 l 0.002,0 0.84571,-1.31835 c 2.1376,0.97329 3.51074,3.10437 3.51367,5.45312 0,2.57192 -1.62071,4.75991 -3.89453,5.61328 l 0.34961,0.93555 C 905.10833,353.55346 907,351.0009 907,348 c -0.003,-2.68877 -1.54515,-5.1384 -3.96875,-6.30273 l 0.76758,-1.19922 c -0.6622,-0.0945 -1.35201,-0.16757 -2.06836,-0.21875 -0.71183,-0.0472 -1.40955,-0.0735 -2.0957,-0.0781 z"
         style="opacity:1;fill:#000000;fill-opacity:1;stroke:none;stroke-width:2;stroke-linecap:round;stroke-linejoin:round;stroke-miterlimit:4;stroke-dasharray:none;stroke-dashoffset:0;stroke-opacity:1" />
    </g>
  </g>
</svg>
